<svg width="128" height="128" viewBox="0 0 128 128" fill="none" xmlns="http://www.w3.org/2000/svg">
<path d="M128 64C128 99.3462 99.3462 128 64 128C28.6538 128 0 99.3462 0 64C0 28.6538 28.6538 0 64 0C99.3462 0 128 28.6538 128 64Z" fill="#151717"/>
<path fill-rule="evenodd" clip-rule="evenodd" d="M64.0228 16.5925L26.074 99.5555L31.526 98.133L64.0229 27.0889L96.6499 98.1333L102.123 99.5555L64.0228 16.5925ZM78.0791 93.3082L68.7665 79.5706L67.9452 74.5253L65.604 90.0668L78.0791 93.3082ZM67.6571 72.7558L63.6406 48.0816L60.2752 72.38L64.0228 84.8186L67.6571 72.7558ZM60.0366 74.1024L59.2793 79.5706L49.9555 93.3245L62.4416 90.0668L60.0366 74.1024Z" fill="#F5F5F5"/>
</svg>
